PathFileType	4	(X/Y/Z)	D:\TRACE\spotREDO_2-26-24\spot_Both_Motion_1_7-platform.trc
DataRate	CameraRate	NumFrames	NumMarkers	Units	OrigDataRate	OrigDataStartFrame	OrigNumFrames
100.00	100.00	      42	5	mm	100.00	5251	      7000
Frame#	Time	Left_Front			Right_Front			Left_Aft			Right_Aft			Post			
		X1	Y1	Z1	X2	Y2	Z2	X3	Y3	Z3	X4	Y4	Z4	X5	Y5	Z5	

5251	52.500	-655.91327	23.08152	-568.17944	759.46136	28.44116	-483.50537	-726.50171	-23.56964	649.75128	843.99579	-16.09508	653.64996	54.15003	668.35504	-946.47559	
5252	52.510	-654.81396	23.07561	-568.20905	760.00836	28.43879	-483.45001	-726.13586	-23.74756	649.66742	844.48840	-15.85021	653.75775	54.97025	668.24487	-946.22662	
5253	52.520	-654.09894	22.66448	-568.34564	760.56012	28.37782	-483.59760	-725.47095	-23.66597	649.86121	845.07965	-15.81616	653.60785	55.19005	668.07269	-946.25732	
5254	52.530	-653.83942	22.65692	-568.38129	761.06085	28.36325	-483.69412	-724.97968	-23.61229	649.72180	845.66797	-15.67426	653.57574	56.09109	668.03754	-945.76904	
5255	52.540	-653.14154	22.57976	-568.19916	761.63037	28.21688	-483.67703	-724.15173	-23.69030	649.69153	846.30603	-15.56252	653.57507	56.20464	667.98517	-946.11505	
5256	52.550	-652.58936	22.55307	-568.26880	762.14087	28.30002	-483.71234	-723.54254	-23.71889	649.63129	846.88300	-15.71911	653.66089	56.86100	667.95343	-946.26801	
5257	52.560	-652.02411	22.48704	-568.18909	762.87183	28.23750	-483.41269	-723.10822	-23.68717	649.66913	847.48358	-15.62914	653.58112	57.42802	667.87109	-946.26807	
5258	52.570	-651.39703	22.39442	-568.18665	763.56995	28.07557	-483.43701	-722.77179	-23.76442	649.76544	847.79156	-15.60563	653.52295	57.87798	667.88715	-946.50690	
5259	52.580	-650.87781	22.57133	-568.31281	763.89484	28.10291	-483.76254	-722.10852	-23.72983	649.80664	848.22656	-15.46177	653.40936	58.38951	667.78931	-946.62964	
5260	52.590	-650.53149	22.54886	-568.28912	764.16089	28.26165	-483.86014	-721.67340	-23.64252	649.73907	848.82959	-15.24162	653.29474	59.20808	667.86139	-946.74536	
5261	52.600	-650.23651	22.54288	-568.24109	764.69476	28.23111	-483.86331	-720.95117	-23.42216	649.77081	849.30609	-15.22427	653.25653	59.97827	667.63745	-946.86487	
5262	52.610	-649.88531	22.42479	-568.29126	764.94275	28.29032	-483.81174	-720.63281	-23.44583	649.76440	849.59625	-15.25434	653.24005	60.36076	667.57330	-946.98804	
5263	52.620	-649.47900	22.08975	-568.38306	765.61823	27.80773	-483.82260	-720.35236	-23.48690	649.66217	849.97083	-15.21834	653.20514	60.83302	667.29443	-947.08771	
5264	52.630	-649.07855	21.98996	-568.45758	766.11731	27.74513	-483.91235	-719.85431	-23.09827	649.69128	850.31616	-15.18639	653.14282	61.09134	667.15295	-947.14410	
5265	52.640	-648.69757	21.87961	-568.42773	766.45715	27.60491	-483.87070	-719.58301	-23.04814	649.56281	850.78674	-14.83333	653.22638	61.05752	667.05463	-947.75208	
5266	52.650	-648.40308	21.89771	-568.40454	766.65625	27.67500	-483.88052	-719.38782	-22.95962	649.43774	851.16003	-14.67479	653.29852	60.76561	666.44934	-947.57385	
5267	52.660	-648.01752	21.71007	-568.38654	766.91754	27.50062	-483.87338	-718.99567	-22.67286	649.62915	851.57062	-14.41914	653.33209	61.16827	666.17700	-947.58929	
5268	52.670	-647.64899	21.33637	-568.38104	767.09546	27.37690	-483.96146	-718.78802	-22.63033	649.52362	851.78101	-14.13687	653.32440	61.36214	665.75885	-947.79083	
5269	52.680	-647.43463	21.14125	-568.43274	767.28497	27.28556	-484.06934	-718.57330	-22.47471	649.43414	851.90533	-13.96852	653.16821	61.42358	665.47461	-947.98950	
5270	52.690	-647.28448	21.07031	-568.50378	767.41064	27.20366	-484.17261	-718.34515	-22.15410	649.41388	851.96667	-13.83589	653.11554	61.63560	665.18573	-948.30853	
5271	52.700	-647.17072	20.94830	-568.56769	767.61292	27.12165	-484.15732	-718.20978	-21.92484	649.33734	852.10919	-13.68876	653.13513	61.72176	664.82776	-948.70776	
5272	52.710	-647.14514	20.80923	-568.55280	767.77551	26.95462	-484.20847	-718.07892	-21.61594	649.32190	852.23584	-13.53251	653.18066	61.89986	664.47699	-949.37115	
5273	52.720	-647.04407	20.55393	-568.67017	767.78674	26.83837	-484.22128	-717.98340	-21.44283	649.28638	852.25458	-13.39503	653.10724	62.02117	664.34070	-949.59796	
5274	52.730	-647.01349	20.37098	-568.86536	767.81354	26.43424	-484.37234	-718.04755	-21.24103	649.11884	852.22876	-13.24309	653.01538	62.09732	664.08044	-949.93365	
5275	52.740	-646.91968	20.16840	-569.04425	768.02448	26.20526	-484.22827	-717.92548	-21.04383	649.03278	852.30768	-13.09824	653.01202	62.27962	663.76563	-950.16150	
5276	52.750	-646.92059	19.96208	-569.03369	768.01978	26.05229	-484.37921	-717.87939	-20.86967	648.96503	852.33856	-12.84320	652.93939	62.61737	663.41687	-950.13422	
5277	52.760	-646.86731	19.83256	-569.05914	768.06537	26.12375	-484.44589	-717.76672	-20.69500	648.91858	852.51898	-12.54691	652.84564	62.35094	663.02753	-950.59583	
5278	52.770	-647.01440	19.84820	-569.09772	767.97900	26.00173	-484.56857	-717.70892	-20.52013	648.91547	852.57996	-12.31321	652.74707	62.31138	662.63580	-950.85065	
5279	52.780	-646.89355	19.46557	-569.15070	767.93488	25.72232	-484.62735	-717.69647	-20.38143	648.94232	852.65948	-12.10602	652.65356	62.30975	662.21167	-951.09204	
5280	52.790	-646.83539	19.19448	-569.22144	767.83325	25.43646	-484.79367	-717.68683	-20.17474	648.91791	852.71649	-11.94163	652.64685	62.29191	661.96039	-951.34344	
5281	52.800	-646.80078	18.90748	-569.28229	767.95807	25.21994	-484.95993	-717.76764	-19.90407	648.88214	852.76947	-11.76750	652.70605	62.30189	661.61615	-951.41376	
5282	52.810	-646.75378	18.65546	-569.24963	768.03827	25.08323	-484.93497	-717.90723	-19.55799	648.82129	852.79639	-11.50982	652.79834	62.24686	661.28247	-951.76770	
5283	52.820	-646.71991	18.47219	-569.34198	767.99231	25.00244	-485.00974	-717.93292	-19.23280	648.75635	852.73987	-11.17431	652.82141	62.38425	660.87970	-951.98785	
5284	52.830	-646.77374	18.28290	-569.42920	768.15027	24.63457	-484.90012	-717.91351	-18.91225	648.71246	852.59424	-10.67776	652.70465	62.45259	660.37048	-952.38257	
5285	52.840	-646.89172	18.02806	-569.52045	768.00482	24.39294	-485.12399	-717.97137	-18.72526	648.60895	852.47882	-10.52041	652.67560	62.15326	659.99786	-952.76703	
5286	52.850	-647.04761	17.68572	-569.62006	767.90808	24.15515	-485.24576	-718.04205	-18.35892	648.55121	852.26251	-10.18499	652.68402	61.83945	659.44427	-953.50592	
5287	52.860	-647.30499	17.49108	-569.68573	767.64563	23.74513	-485.21744	-718.35028	-18.12474	648.50970	852.16138	-9.95648	652.66498	61.73360	658.88104	-954.01611	
5288	52.870	-647.57166	17.24273	-569.80103	767.29797	23.51405	-485.32916	-718.73938	-17.68180	648.41913	851.83221	-9.63983	652.48370	61.56728	658.46606	-954.30762	
5289	52.880	-647.78253	16.99194	-569.87225	766.93976	23.23196	-485.38065	-719.00836	-17.41182	648.29828	851.41937	-9.15771	652.34589	61.13105	658.04492	-954.90558	
5290	52.890	-648.06995	16.56952	-569.94061	766.67633	23.04855	-485.50183	-719.37006	-17.17962	648.25342	851.17456	-8.99414	652.23480	60.90654	657.64801	-955.51434	
5291	52.900	-648.23346	16.04247	-570.15442	766.49139	22.85302	-485.56805	-719.36560	-16.77122	648.34137	851.02759	-8.66808	652.01599	60.63918	657.10284	-955.91913	
5292	52.910	-648.37054	15.67452	-570.25092	766.37964	22.68860	-485.61664	-719.72229	-16.61401	648.17749	850.87927	-8.63539	651.89252	60.42030	656.49866	-956.29852	
